<svg width="194" height="26" viewBox="0 0 194 26" fill="none" xmlns="http://www.w3.org/2000/svg">
<path d="M17.6924 21H14.8027V10.5371H14.7168L10.5059 20.8496H8.46484L4.25391 10.5371H4.16797V21H1.27832V5.49902H5.03809L9.44238 16.4883H9.52832L13.9326 5.49902H17.6924V21Z" fill="white"/>
<path d="M30.54 21H20.2705V5.49902H30.54V8.17383H23.5146V11.9121H30.1426V14.4043H23.5146V18.3145H30.54V21Z" fill="white"/>
<path d="M36.6416 21V8.17383H32.1084V5.49902H44.4297V8.17383H39.8857V21H36.6416Z" fill="white"/>
<path d="M56.4502 21V14.4688H49.4678V21H46.2236V5.49902H49.4678V11.7939H56.4502V5.49902H59.6943V21H56.4502Z" fill="white"/>
<path d="M72.542 21H62.2725V5.49902H72.542V8.17383H65.5166V11.9121H72.1445V14.4043H65.5166V18.3145H72.542V21Z" fill="white"/>
<path d="M80.8564 5.49902C83.1911 5.49902 85.0029 6.16504 86.292 7.49707C87.5954 8.84342 88.2471 10.7412 88.2471 13.1904C88.2471 15.6468 87.5954 17.5625 86.292 18.9375C84.9958 20.3125 83.1839 21 80.8564 21H74.8838V5.49902H80.8564ZM78.1279 18.3145H80.4697C81.9235 18.3145 83.0299 17.8812 83.7891 17.0146C84.5553 16.141 84.9385 14.8698 84.9385 13.2012C84.9385 11.5827 84.5518 10.3402 83.7783 9.47363C83.0049 8.6071 81.902 8.17383 80.4697 8.17383H78.1279V18.3145Z" fill="white"/>
<path d="M90.9648 21.1289C90.485 21.1289 90.0768 20.9606 89.7402 20.624C89.4036 20.2874 89.2354 19.8792 89.2354 19.3994C89.2354 18.9124 89.4036 18.5042 89.7402 18.1748C90.0768 17.8382 90.485 17.6699 90.9648 17.6699C91.4518 17.6699 91.86 17.8382 92.1895 18.1748C92.526 18.5042 92.6943 18.9124 92.6943 19.3994C92.6943 19.8792 92.526 20.2874 92.1895 20.624C91.8529 20.9606 91.4447 21.1289 90.9648 21.1289Z" fill="white"/>
<path d="M111.729 21H108.84V10.5371H108.754L104.543 20.8496H102.502L98.291 10.5371H98.2051V21H95.3154V5.49902H99.0752L103.479 16.4883H103.565L107.97 5.49902H111.729V21Z" fill="white"/>
<path d="M117.552 15.1992C117.552 16.209 117.835 17.0039 118.4 17.584C118.973 18.1855 119.775 18.4863 120.807 18.4863C121.831 18.4863 122.629 18.1855 123.202 17.584C123.768 17.0039 124.051 16.209 124.051 15.1992V5.49902H127.295V15.5215C127.295 17.2402 126.708 18.626 125.533 19.6787C124.352 20.7386 122.776 21.2686 120.807 21.2686C118.83 21.2686 117.251 20.7386 116.069 19.6787C114.895 18.626 114.308 17.2402 114.308 15.5215V5.49902H117.552V15.1992Z" fill="white"/>
<path d="M132.43 16.585C132.501 17.2152 132.838 17.7272 133.439 18.1211C134.034 18.5078 134.764 18.7012 135.631 18.7012C136.49 18.7012 137.192 18.515 137.736 18.1426C138.273 17.7773 138.542 17.3083 138.542 16.7354C138.542 16.234 138.341 15.8294 137.94 15.5215C137.539 15.2135 136.87 14.9557 135.932 14.748L133.912 14.3076C131.069 13.6989 129.647 12.2559 129.647 9.97852C129.647 8.56055 130.202 7.41113 131.312 6.53027C132.415 5.66374 133.837 5.23047 135.577 5.23047C137.368 5.23047 138.8 5.65658 139.874 6.50879C140.934 7.35384 141.478 8.48177 141.507 9.89258H138.467C138.417 9.24089 138.127 8.72526 137.597 8.3457C137.074 7.97331 136.404 7.78711 135.588 7.78711C134.786 7.78711 134.141 7.96257 133.654 8.31348C133.16 8.66439 132.913 9.1263 132.913 9.69922C132.913 10.1719 133.114 10.5586 133.515 10.8594C133.909 11.1458 134.553 11.3929 135.448 11.6006L137.328 11.998C138.882 12.3275 140.014 12.8431 140.723 13.5449C141.432 14.2396 141.786 15.1777 141.786 16.3594C141.786 17.8633 141.22 19.0557 140.089 19.9365C138.957 20.8245 137.428 21.2686 135.502 21.2686C133.633 21.2686 132.147 20.8532 131.044 20.0225C129.934 19.1846 129.354 18.0387 129.304 16.585H132.43Z" fill="white"/>
<path d="M143.784 21V5.49902H147.028V21H143.784Z" fill="white"/>
<path d="M156.46 21.2686C154.197 21.2686 152.41 20.556 151.1 19.1309C149.782 17.6986 149.123 15.7363 149.123 13.2441C149.123 10.7591 149.785 8.80046 151.11 7.36816C152.421 5.94303 154.204 5.23047 156.46 5.23047C158.336 5.23047 159.908 5.76758 161.176 6.8418C162.451 7.93034 163.149 9.33756 163.271 11.0635H160.112C159.962 10.111 159.554 9.34831 158.888 8.77539C158.215 8.20247 157.405 7.91602 156.46 7.91602C155.235 7.91602 154.258 8.39225 153.527 9.34473C152.797 10.3115 152.432 11.6077 152.432 13.2334C152.432 14.8877 152.793 16.1911 153.517 17.1436C154.24 18.1032 155.225 18.583 156.471 18.583C157.43 18.583 158.236 18.318 158.888 17.7881C159.539 17.2581 159.951 16.5348 160.123 15.6182H163.281C163.102 17.3441 162.397 18.7191 161.165 19.7432C159.933 20.7601 158.365 21.2686 156.46 21.2686Z" fill="white"/>
<path fill-rule="evenodd" clip-rule="evenodd" d="M179.565 4.59397C180.833 4.58536 182.09 4.82719 183.263 5.30561C184.44 5.78498 185.509 6.4924 186.411 7.3871C187.312 8.28179 188.028 9.34607 188.516 10.5186C189.004 11.6911 189.256 12.9486 189.256 14.2188V19.25C189.256 19.8965 188.999 20.5165 188.542 20.9736C188.085 21.4307 187.465 21.6875 186.818 21.6875H185.381C184.734 21.6875 184.114 21.4307 183.657 20.9736C183.2 20.5165 182.943 19.8965 182.943 19.25V15.6563C182.943 15.0098 183.2 14.3898 183.657 13.9327C184.114 13.4756 184.734 13.2188 185.381 13.2188H187.19C187.102 12.5564 186.928 11.9069 186.67 11.2874C186.283 10.3586 185.716 9.51545 185.002 8.80666C184.288 8.09788 183.44 7.53745 182.509 7.15769C181.577 6.77793 180.579 6.58634 179.573 6.59397H179.558C178.552 6.58634 177.554 6.77793 176.622 7.15769C175.69 7.53745 174.843 8.09788 174.129 8.80666C173.415 9.51545 172.848 10.3586 172.461 11.2874C172.203 11.9069 172.028 12.5564 171.941 13.2188H173.75C174.396 13.2188 175.016 13.4756 175.474 13.9327C175.931 14.3898 176.187 15.0098 176.187 15.6563V19.25C176.187 19.8965 175.931 20.5165 175.474 20.9736C175.016 21.4307 174.396 21.6875 173.75 21.6875H172.312C171.666 21.6875 171.046 21.4307 170.589 20.9736C170.132 20.5165 169.875 19.8965 169.875 19.25V14.2188C169.875 12.9486 170.126 11.6911 170.615 10.5186C171.103 9.34607 171.818 8.28179 172.72 7.3871C173.621 6.4924 174.691 5.78498 175.867 5.30561C177.041 4.82719 178.298 4.58536 179.565 4.59397ZM171.875 15.2188V19.25C171.875 19.366 171.921 19.4773 172.003 19.5594C172.085 19.6414 172.196 19.6875 172.312 19.6875H173.75C173.866 19.6875 173.977 19.6414 174.059 19.5594C174.141 19.4773 174.187 19.366 174.187 19.25V15.6563C174.187 15.5402 174.141 15.4289 174.059 15.3469C173.977 15.2648 173.866 15.2188 173.75 15.2188H171.875ZM187.256 15.2188H185.381C185.265 15.2188 185.153 15.2648 185.071 15.3469C184.989 15.4289 184.943 15.5402 184.943 15.6563V19.25C184.943 19.366 184.989 19.4773 185.071 19.5594C185.153 19.6414 185.265 19.6875 185.381 19.6875H186.818C186.934 19.6875 187.046 19.6414 187.128 19.5594C187.21 19.4773 187.256 19.366 187.256 19.25V15.2188ZM179.565 5.594V5.59403V5.594Z" fill="white"/>
</svg>
